# xmcd
#
# Track frame offsets:
#       150
#       18633
#       36530
#       69674
#       90910
#       133850
#       158922
#       177808
#       192482
#       234557
#       238423
#       268685
#
# Disc length: 4021 seconds
#
# Revision: 0
# Processed by: cddbd v1.5PL3 Copyright (c) Steve Scherf et al.
# Submitted via: WaveLab 4.01
#
DISCID=ad0fb30c
DTITLE=Pachyderm Party - Folly
DYEAR=2001
DGENRE=Avant Garde
TTITLE0=Okay Baby, Time To Do The Cake Walk
TTITLE1=The Fatal Virtues Of Men
TTITLE2=Blue Noise
TTITLE3=Roadkill - Lunchmeat
TTITLE4=Smooth Ride Down The Boulevard
TTITLE5=There's Something Wrong With Grandma
TTITLE6=Chump In Space (John Glenn)
TTITLE7=Fly By
TTITLE8=Tension;Release;Conflict;Expansion
TTITLE9=Sucks
TTITLE10=Top Off the Tank, Frank
TTITLE11=24 Ppm
EXTD=
EXTT0=
EXTT1=
EXTT2=
EXTT3=
EXTT4=
EXTT5=
EXTT6=
EXTT7=
EXTT8=
EXTT9=
EXTT10=
EXTT11=
PLAYORDER=
